# xmcd
#
# Track frame offsets: 
#        150
#        16643
#        40758
#        62446
#        84327
#        104409
#        122642
#        139698
#        157060
#        172376
#        186726
#        204556
#        225174
#
# Disc length: 3255 seconds
#
# Revision: 0
# Processed by: cddbd v1.5.2PL0 Copyright (c) Steve Scherf et al.
# Submitted via: ExactAudioCopy v1.2
#
DISCID=a90cb50d
DTITLE=Harpdog Brown - For Love and Money
DYEAR=2019
DGENRE=Blues
TTITLE0=No Eyes for Me
TTITLE1=Blue Light Boogie
TTITLE2=The Comeback
TTITLE3=Reefer Lovin’ Woman
TTITLE4=A New Day Is Dawnin’
TTITLE5=Vicious, Vicious Vodka
TTITLE6=I’ll Make It up to You
TTITLE7=One Step Forward
TTITLE8=Stiff
TTITLE9=For Love and Money
TTITLE10=Buzzard Luck
TTITLE11=Thinkin’ and Drinkin’
TTITLE12=Sasha’s Lullaby
EXTD=
EXTT0=
EXTT1=
EXTT2=
EXTT3=
EXTT4=
EXTT5=
EXTT6=
EXTT7=
EXTT8=
EXTT9=
EXTT10=
EXTT11=
EXTT12=
PLAYORDER=
